<?xml version="1.0" encoding="UTF-8" standalone="no"?><!DOCTYPE svg PUBLIC "-//W3C//DTD SVG 1.1//EN" "http://www.w3.org/Graphics/SVG/1.1/DTD/svg11.dtd">
<svg width="40" height="40" viewBox="0 0 320 320" version="1.1"
    xmlns="http://www.w3.org/2000/svg"
    xmlns:xlink="http://www.w3.org/1999/xlink" xml:space="preserve"
    xmlns:serif="http://www.serif.com/" style="fill-rule:evenodd;clip-rule:evenodd;stroke-linejoin:round;stroke-miterlimit:2;">
    <g id="レイヤー2">
        <circle cx="160" cy="160" r="160" style="fill:#50ade0;"/>
        <path d="M243.11,296.718c-24.222,14.768 -52.68,23.282 -83.11,23.282c-88.306,0 -160,-71.694 -160,-160c0,-88.306 71.694,-160 160,-160c88.306,0 160,71.694 160,160c0,30.307 -8.445,58.657 -23.114,82.834l-46.701,-117.226c-11.298,-28.359 -28.283,-47.512 -50.956,-57.458c-22.672,-9.946 -48.014,-9.339 -76.026,1.821c-25.119,10.007 -42.964,27.242 -53.538,51.707c-10.573,24.465 -10.856,49.257 -0.849,74.375c10.283,25.813 27.519,43.826 51.706,54.04c24.188,10.214 49.304,10.134 75.348,-0.242c4.399,-1.752 9.076,-4.152 14.032,-7.199l-26.769,-67.195c-3.663,4.947 -8.33,8.55 -14.002,10.809c-6.945,2.767 -13.597,2.735 -19.956,-0.097c-6.359,-2.831 -10.968,-7.836 -13.827,-15.012c-2.721,-6.83 -2.584,-13.724 0.41,-20.685c2.995,-6.96 7.907,-11.8 14.736,-14.521c7.524,-2.998 14.598,-2.664 21.222,1.001c6.623,3.665 11.757,10.07 15.4,19.214l55.994,140.552Z" style="fill:#dbe4ef;"/>
    </g>
</svg>